<?xml version="1.0" standalone="no"?>
<!DOCTYPE svg PUBLIC "-//W3C//DTD SVG 20010904//EN"
 "http://www.w3.org/TR/2001/REC-SVG-20010904/DTD/svg10.dtd">
<svg version="1.0" xmlns="http://www.w3.org/2000/svg"
 width="529.000000pt" height="530.000000pt" viewBox="0 0 529.000000 530.000000"
 preserveAspectRatio="xMidYMid meet">

<g transform="translate(0.000000,530.000000) scale(0.100000,-0.100000)"
fill="#000000" stroke="none">
<path d="M2045 3450 l-1830 -1830 -97 -792 c-53 -436 -97 -799 -97 -806 -1 -8
7 -10 21 -7 13 3 373 48 802 100 428 51 780 95 782 97 29 25 3654 3654 3654
3658 0 3 -316 321 -703 708 l-702 702 -1830 -1830z m2063 647 l232 -232 -1513
-1512 -1512 -1513 -263 -31 c-144 -18 -264 -30 -266 -28 -2 2 11 122 28 267
l32 263 1510 1510 c830 830 1511 1509 1514 1509 3 0 110 -105 238 -233z"/>
</g>
</svg>
